<svg xmlns="http://www.w3.org/2000/svg" viewBox="0 0 55.57 55.57"><defs><style>.cls-1{fill:#0082f1;}.cls-2{fill:#fff;fill-rule:evenodd;}.cls-3{fill:none;stroke:#0082f1;stroke-linecap:round;stroke-miterlimit:10;stroke-width:0.57px;stroke-dasharray:3.35;}</style></defs><title>Asset 4</title><g id="Layer_2" data-name="Layer 2"><g id="Layer_1-2" data-name="Layer 1"><circle class="cls-1" cx="27.79" cy="27.79" r="24.15"/><path class="cls-2" d="M35.11,37.57l.07,0a7.55,7.55,0,1,0,2.94-14.5c-8.25,0-12,16-21.15,16a7.81,7.81,0,1,1,5.52-13.34.44.44,0,0,1-.62.62A6.93,6.93,0,1,0,17,38.18c7.53,0,11.39-12.34,18.12-15.32a8.39,8.39,0,0,0-14.49-3.34l-.72,1h0a9,9,0,0,0-1,2.24L18,22.46A9.86,9.86,0,0,1,19.14,20h0a9.27,9.27,0,0,1,16.78,2.53,8.26,8.26,0,0,1,8.16,2.12A8.43,8.43,0,0,1,34.08,38h0a8.49,8.49,0,0,1-2.17-1.69v1.83a.44.44,0,1,1-.88,0V34.65h3.52a.44.44,0,0,1,0,.88h-2.2a7.64,7.64,0,0,0,2.15,1.74h0Q34.81,37.44,35.11,37.57Z"/><circle class="cls-3" cx="27.79" cy="27.79" r="27.5"/></g></g></svg>