<svg xmlns="http://www.w3.org/2000/svg" viewBox="0 0 206.29 55.57"><defs><style>.cls-1{fill:#0082f1;}.cls-2{fill:#fff;fill-rule:evenodd;}.cls-3{fill:none;stroke:#0082f1;stroke-linecap:round;stroke-miterlimit:10;stroke-width:0.57px;stroke-dasharray:3.35;}.cls-4{fill:#6b6b6b;}.cls-5{fill:#a3a3a3;}</style></defs><title>Asset 3</title><g id="Layer_2" data-name="Layer 2"><g id="Layer_1-2" data-name="Layer 1"><circle class="cls-1" cx="27.79" cy="27.79" r="24.15"/><path class="cls-2" d="M35.11,37.57l.07,0a7.55,7.55,0,1,0,2.94-14.5c-8.25,0-12,16-21.15,16a7.81,7.81,0,1,1,5.52-13.34.44.44,0,0,1-.62.62A6.93,6.93,0,1,0,17,38.18c7.53,0,11.39-12.34,18.12-15.32a8.39,8.39,0,0,0-14.49-3.34l-.72,1h0a9,9,0,0,0-1,2.24L18,22.46A9.86,9.86,0,0,1,19.14,20h0a9.27,9.27,0,0,1,16.78,2.53,8.26,8.26,0,0,1,8.16,2.12A8.43,8.43,0,0,1,34.08,38h0a8.49,8.49,0,0,1-2.17-1.69v1.83a.44.44,0,1,1-.88,0V34.65h3.52a.44.44,0,0,1,0,.88h-2.2a7.64,7.64,0,0,0,2.15,1.74h0Q34.81,37.44,35.11,37.57Z"/><circle class="cls-3" cx="27.79" cy="27.79" r="27.5"/><path class="cls-4" d="M82.83,32.08a8.11,8.11,0,0,1-2.73,5.82A9.59,9.59,0,0,1,73.6,40a8.62,8.62,0,0,1-6.93-3q-2.53-3-2.53-8.15v-1.4a13.73,13.73,0,0,1,1.16-5.82,8.73,8.73,0,0,1,3.33-3.86,10.4,10.4,0,0,1,11.42.78,8.71,8.71,0,0,1,2.8,6H78.14a4.79,4.79,0,0,0-1.24-3.22,4.58,4.58,0,0,0-3.23-1A4,4,0,0,0,70.13,22a9.48,9.48,0,0,0-1.2,5.25V29a10.14,10.14,0,0,0,1.13,5.43,3.94,3.94,0,0,0,3.55,1.72,4.66,4.66,0,0,0,3.27-1,4.52,4.52,0,0,0,1.24-3.09Z"/><path class="cls-4" d="M89.79,39.72H85.22V15.54h4.56Z"/><path class="cls-4" d="M92.18,31a10.1,10.1,0,0,1,1-4.52A7.15,7.15,0,0,1,96,23.46a8.19,8.19,0,0,1,4.26-1.09,7.75,7.75,0,0,1,5.63,2.11,8.47,8.47,0,0,1,2.43,5.73l0,1.16a8.9,8.9,0,0,1-2.19,6.29,8.48,8.48,0,0,1-11.75,0,9.06,9.06,0,0,1-2.2-6.42Zm4.55.32a6.37,6.37,0,0,0,.91,3.71,3.28,3.28,0,0,0,5.19,0,7,7,0,0,0,.93-4.06,6.3,6.3,0,0,0-.93-3.69A3,3,0,0,0,100.22,26a3,3,0,0,0-2.58,1.3A7.09,7.09,0,0,0,96.73,31.37Z"/><path class="cls-4" d="M120.67,38A5.71,5.71,0,0,1,116,40a5.38,5.38,0,0,1-4.18-1.57,6.72,6.72,0,0,1-1.47-4.61V22.69h4.55v11q0,2.66,2.42,2.66a3.28,3.28,0,0,0,3.18-1.61V22.69h4.56v17H120.8Z"/><path class="cls-4" d="M127.16,31.08a10.26,10.26,0,0,1,1.79-6.34,5.8,5.8,0,0,1,4.89-2.36,5.22,5.22,0,0,1,4.11,1.86V15.54h4.56V39.72h-4.11l-.22-1.81A5.35,5.35,0,0,1,133.8,40,5.78,5.78,0,0,1,129,37.66,10.59,10.59,0,0,1,127.16,31.08Zm4.55.34a6.72,6.72,0,0,0,.83,3.67A2.72,2.72,0,0,0,135,36.36a3,3,0,0,0,3-1.78V27.85A3,3,0,0,0,135,26.07Q131.7,26.07,131.71,31.42Z"/><path class="cls-5" d="M159.5,34.08a3.71,3.71,0,0,0-1.34-3,14.13,14.13,0,0,0-4.9-2.11,17.13,17.13,0,0,1-5.19-2.18,5.29,5.29,0,0,1-.17-8.65,8.89,8.89,0,0,1,5.53-1.64,9.19,9.19,0,0,1,4.09.88,6.69,6.69,0,0,1,2.79,2.46,6.45,6.45,0,0,1,1,3.51h-2a4.81,4.81,0,0,0-1.61-3.78,6.25,6.25,0,0,0-4.31-1.43,6.8,6.8,0,0,0-4.19,1.17,3.67,3.67,0,0,0-1.56,3.07,3.47,3.47,0,0,0,1.4,2.85,13,13,0,0,0,4.49,1.95,21,21,0,0,1,4.67,1.75,6.66,6.66,0,0,1,2.39,2.16,5.42,5.42,0,0,1,.8,3,5.18,5.18,0,0,1-2.16,4.35A9.22,9.22,0,0,1,153.59,40a11.2,11.2,0,0,1-4.45-.87,6.79,6.79,0,0,1-3.07-2.42,6.25,6.25,0,0,1-1-3.57H147A4.58,4.58,0,0,0,148.77,37a7.66,7.66,0,0,0,4.82,1.4,7.14,7.14,0,0,0,4.3-1.18A3.69,3.69,0,0,0,159.5,34.08Z"/><path class="cls-5" d="M166.41,25.57a6.66,6.66,0,0,1,2.38-2.36,6.22,6.22,0,0,1,3.16-.83A5.11,5.11,0,0,1,176,23.91a7,7,0,0,1,1.35,4.63V39.72h-1.87V28.53a5.2,5.2,0,0,0-1-3.4,3.79,3.79,0,0,0-3-1.12,4.77,4.77,0,0,0-3.09,1.09,6.41,6.41,0,0,0-2,3V39.72h-1.87V15.54h1.87Z"/><path class="cls-5" d="M188.18,40A7.39,7.39,0,0,1,184.26,39a7.29,7.29,0,0,1-2.73-3,9.3,9.3,0,0,1-1-4.29V31a10,10,0,0,1,1-4.42,7.58,7.58,0,0,1,2.65-3.09,6.54,6.54,0,0,1,3.68-1.13,6.15,6.15,0,0,1,4.92,2.12,8.59,8.59,0,0,1,1.82,5.78v1.06H182.42v.36a7.13,7.13,0,0,0,1.66,4.82,5.28,5.28,0,0,0,4.18,1.93,6.14,6.14,0,0,0,2.67-.55,5.92,5.92,0,0,0,2.1-1.76l1.18.9A6.87,6.87,0,0,1,188.18,40ZM187.84,24a4.71,4.71,0,0,0-3.58,1.56,7.2,7.2,0,0,0-1.77,4.19H192.7v-.2a6.25,6.25,0,0,0-1.4-4A4.34,4.34,0,0,0,187.84,24Z"/><path class="cls-5" d="M199.71,39.72h-1.89V15.54h1.89Z"/><path class="cls-5" d="M206.29,39.72H204.4V15.54h1.89Z"/></g></g></svg>